# Blender v2.79 (sub 0) OBJ File: 'counter.blend'
# www.blender.org
mtllib counter.mtl
o Counters_Cube
v 1.189625 0.000000 -2.014129
v 1.189625 0.000000 2.014129
v -1.189625 0.000000 2.014128
v -1.189625 0.000000 -2.014129
v 1.189626 2.000000 -2.014128
v 1.189624 2.000000 2.014130
v -1.189626 2.000000 2.014128
v -1.189625 2.000000 -2.014129
v 1.189625 0.300000 -1.618725
v 1.189625 0.300000 1.618725
v 1.189626 1.700000 -1.618724
v 1.189625 1.700000 1.618726
v 0.832738 0.300000 -2.014129
v -0.832737 0.300000 -2.014129
v 0.832738 1.700000 -2.014128
v -0.832737 1.700000 -2.014129
v -1.189625 0.300000 1.618724
v -1.189625 0.300000 -1.618726
v -1.189625 1.700000 1.618724
v -1.189625 1.700000 -1.618725
v 0.832737 0.300000 2.014129
v -0.832738 0.300000 2.014128
v 0.832737 1.700000 2.014130
v -0.832738 1.700000 2.014128
v 0.832738 0.300000 -1.772434
v -0.832737 0.300000 -1.772434
v 0.832738 1.700000 -1.772433
v -0.832737 1.700000 -1.772434
v 0.832737 0.300000 1.772433
v -0.832738 0.300000 1.772433
v 0.832737 1.700000 1.772434
v -0.832738 1.700000 1.772433
v 1.070663 0.300000 -1.618725
v 1.070663 0.300000 1.618725
v 1.070663 1.700000 -1.618724
v 1.070662 1.700000 1.618726
v -1.070663 0.300000 1.618724
v -1.070662 0.300000 -1.618726
v -1.070663 1.700000 1.618724
v -1.070663 1.700000 -1.618725
vn 0.0000 -1.0000 0.0000
vn 0.0000 1.0000 0.0000
vn 1.0000 0.0000 0.0000
vn -0.0000 -0.0000 1.0000
vn -1.0000 -0.0000 -0.0000
vn 0.0000 0.0000 -1.0000
usemtl Counter
s off
f 1//1 2//1 3//1 4//1
f 5//2 8//2 7//2 6//2
f 5//3 6//3 12//3 11//3
f 3//4 2//4 21//4 22//4
f 4//5 3//5 17//5 18//5
f 1//6 4//6 14//6 13//6
f 10//2 9//2 33//2 34//2
f 6//3 2//3 10//3 12//3
f 1//3 5//3 11//3 9//3
f 2//3 1//3 9//3 10//3
f 22//2 21//2 29//2 30//2
f 5//6 1//6 13//6 15//6
f 8//6 5//6 15//6 16//6
f 4//6 8//6 16//6 14//6
f 12//6 10//6 34//6 36//6
f 3//5 7//5 19//5 17//5
f 7//5 8//5 20//5 19//5
f 8//5 4//5 18//5 20//5
f 24//3 22//3 30//3 32//3
f 6//4 7//4 24//4 23//4
f 7//4 3//4 22//4 24//4
f 2//4 6//4 23//4 21//4
f 27//6 25//6 26//6 28//6
f 29//4 31//4 32//4 30//4
f 16//1 15//1 27//1 28//1
f 15//5 13//5 25//5 27//5
f 23//1 24//1 32//1 31//1
f 21//5 23//5 31//5 29//5
f 14//3 16//3 28//3 26//3
f 13//2 14//2 26//2 25//2
f 33//3 35//3 36//3 34//3
f 37//5 39//5 40//5 38//5
f 20//4 18//4 38//4 40//4
f 18//2 17//2 37//2 38//2
f 11//1 12//1 36//1 35//1
f 9//4 11//4 35//4 33//4
f 19//1 20//1 40//1 39//1
f 17//6 19//6 39//6 37//6
