# Blender v2.79 (sub 0) OBJ File: 'crate.blend'
# www.blender.org
mtllib crate.mtl
o Crate_Cube
v 1.000000 0.000000 -1.000000
v 1.000000 0.000000 1.000000
v -1.000000 0.000000 1.000000
v -1.000000 0.000000 -1.000000
v 1.000000 2.000000 -0.999999
v 0.999999 2.000000 1.000001
v -1.000000 2.000000 1.000000
v -1.000000 2.000000 -1.000000
v 1.000000 0.300000 -0.700000
v 1.000000 0.300000 0.700000
v 1.000000 1.700000 -0.700000
v 1.000000 1.700000 0.700000
v -1.000000 0.300000 0.700000
v -1.000000 0.300000 -0.700000
v -1.000000 1.700000 0.700000
v -1.000000 1.700000 -0.700000
v 1.000000 0.300000 -0.700000
v 1.000000 0.300000 0.700000
v 1.000000 1.700000 -0.700000
v 1.000000 1.700000 0.700000
v -1.000000 0.300000 0.700000
v -1.000000 0.300000 -0.700000
v -1.000000 1.700000 0.700000
v -1.000000 1.700000 -0.700000
v 0.872235 0.300000 -0.700000
v 0.872235 0.300000 0.700000
v 0.872236 1.700000 -0.700000
v 0.872235 1.700000 0.700000
v -0.872236 0.300000 0.700000
v -0.872235 0.300000 -0.700000
v -0.872236 1.700000 0.700000
v -0.872235 1.700000 -0.700000
v 0.700000 0.300000 1.000000
v -0.700000 0.300000 1.000000
v 0.699999 1.700000 1.000000
v -0.700000 1.700000 1.000000
v 0.700000 0.300000 -1.000000
v -0.700000 0.300000 -1.000000
v 0.700000 1.700000 -1.000000
v -0.700000 1.700000 -1.000000
v 0.700000 0.300000 0.900000
v -0.700000 0.300000 0.900000
v 0.699999 1.700000 0.900000
v -0.700000 1.700000 0.900000
v 0.700000 0.300000 -0.900000
v -0.700000 0.300000 -0.900000
v 0.700000 1.700000 -0.900000
v -0.700000 1.700000 -0.900000
v 0.700000 2.000000 -0.700000
v 0.700000 2.000000 0.700001
v -0.700000 2.000000 0.700000
v -0.700000 2.000000 -0.700000
v 0.700000 1.914328 -0.700000
v 0.700000 1.914328 0.700001
v -0.700000 1.914328 0.700000
v -0.700000 1.914328 -0.700000
vn 0.0000 -1.0000 0.0000
vn 0.0000 1.0000 0.0000
vn 1.0000 -0.0000 0.0000
vn -0.0000 -0.0000 1.0000
vn -1.0000 0.0000 -0.0000
vn 0.0000 0.0000 -1.0000
usemtl Crate
s off
f 1//1 2//1 3//1 4//1
f 8//2 7//2 51//2 52//2
f 1//3 5//3 11//3 9//3
f 3//4 2//4 33//4 34//4
f 7//5 8//5 16//5 15//5
f 5//6 1//6 37//6 39//6
f 16//4 14//4 22//4 24//4
f 2//3 1//3 9//3 10//3
f 5//3 6//3 12//3 11//3
f 6//3 2//3 10//3 12//3
f 9//4 11//4 19//4 17//4
f 8//5 4//5 14//5 16//5
f 4//5 3//5 13//5 14//5
f 3//5 7//5 15//5 13//5
f 21//6 23//6 31//6 29//6
f 23//1 24//1 32//1 31//1
f 14//4 13//4 21//4 22//4
f 12//4 10//4 18//4 20//4
f 15//4 16//4 24//4 23//4
f 10//4 9//4 17//4 18//4
f 13//4 15//4 23//4 21//4
f 11//4 12//4 20//4 19//4
f 25//3 27//3 28//3 26//3
f 29//5 31//5 32//5 30//5
f 19//1 20//1 28//1 27//1
f 17//4 19//4 27//4 25//4
f 24//4 22//4 30//4 32//4
f 22//2 21//2 29//2 30//2
f 20//6 18//6 26//6 28//6
f 18//2 17//2 25//2 26//2
f 36//3 34//3 42//3 44//3
f 6//4 7//4 36//4 35//4
f 7//4 3//4 34//4 36//4
f 2//4 6//4 35//4 33//4
f 37//2 38//2 46//2 45//2
f 8//6 5//6 39//6 40//6
f 4//6 8//6 40//6 38//6
f 1//6 4//6 38//6 37//6
f 41//4 43//4 44//4 42//4
f 47//6 45//6 46//6 48//6
f 40//1 39//1 47//1 48//1
f 34//2 33//2 41//2 42//2
f 39//5 37//5 45//5 47//5
f 35//1 36//1 44//1 43//1
f 33//5 35//5 43//5 41//5
f 38//3 40//3 48//3 46//3
f 52//3 51//3 55//3 56//3
f 5//2 8//2 52//2 49//2
f 7//2 6//2 50//2 51//2
f 6//2 5//2 49//2 50//2
f 53//2 56//2 55//2 54//2
f 49//4 52//4 56//4 53//4
f 51//6 50//6 54//6 55//6
f 50//5 49//5 53//5 54//5
