# Blender v2.79 (sub 0) OBJ File: 'door.blend'
# www.blender.org
mtllib door.mtl
o Plane
v -0.010377 1.003133 1.019633
v -0.010377 -0.996867 1.019633
v -0.010377 1.003133 -0.980367
v -0.010377 -0.996867 -0.980367
v -0.010377 -0.996867 0.319633
v -0.010377 -0.996867 -0.280367
v -0.010377 0.203133 0.319633
v -0.010377 0.203133 -0.280367
v 0.089623 -0.996867 0.319633
v 0.089623 -0.996867 -0.280367
v 0.089623 0.203133 0.319633
v 0.089623 0.203133 -0.280367
v -0.010377 1.003133 1.019633
v -0.010377 -0.996867 1.019633
v -0.010377 1.003133 -0.980367
v -0.010377 -0.996867 -0.980367
v -0.010377 -0.996867 0.319633
v -0.010377 -0.996867 -0.280367
v -0.010377 0.203133 0.319633
v -0.010377 0.203133 -0.280367
v 0.089623 -0.996867 0.319633
v 0.089623 -0.996867 -0.280367
v 0.089623 0.203133 0.319633
v 0.089623 0.203133 -0.280367
vn -1.0000 -0.0000 0.0000
vn 0.0000 0.0000 1.0000
vn 0.0000 0.0000 -1.0000
vn 0.0000 -1.0000 0.0000
vn 0.0000 1.0000 0.0000
vn 1.0000 0.0000 0.0000
usemtl Material
s off
f 1//1 3//1 4//1 6//1 8//1 7//1 5//1 2//1
f 10//1 9//1 11//1 12//1
f 6//2 10//2 12//2 8//2
f 7//3 11//3 9//3 5//3
f 8//4 12//4 11//4 7//4
f 5//5 9//5 10//5 6//5
f 13//6 14//6 17//6 19//6 20//6 18//6 16//6 15//6
f 22//6 24//6 23//6 21//6
f 18//2 22//2 24//2 20//2
f 19//3 23//3 21//3 17//3
f 20//4 24//4 23//4 19//4
f 17//5 21//5 22//5 18//5
