# Blender v2.78 (sub 0) OBJ File: 'door.blend'
# www.blender.org
mtllib door.mtl
o Door_Cube
v -0.071750 -0.996870 0.352960
v -0.071750 0.445960 0.352960
v -0.071750 -0.996870 -0.313700
v -0.071750 0.442830 -0.313700
v 0.051000 -0.996870 0.352960
v 0.051000 0.445960 0.352960
v 0.051000 -0.996870 -0.313700
v 0.051000 0.445960 -0.313700
v -0.071750 -0.430003 0.352960
v -0.071750 -0.179829 0.352960
v -0.071750 -0.182102 -0.313700
v -0.071750 -0.431232 -0.313700
v 0.051000 -0.179829 -0.313700
v 0.051000 -0.430003 -0.313700
v 0.051000 -0.179829 0.352960
v 0.051000 -0.430003 0.352960
v -0.071750 -0.996870 0.258110
v -0.071750 0.445515 0.258110
v 0.051000 -0.996870 0.258110
v 0.051000 0.445960 0.258110
v 0.051000 -0.430003 0.258110
v 0.051000 -0.179829 0.258110
v -0.071750 -0.430178 0.258110
v -0.071750 -0.180153 0.258110
v -0.071750 0.445163 0.183273
v 0.051000 -0.996870 0.183273
v -0.071750 -0.430316 0.183273
v -0.071750 -0.180408 0.183273
v -0.071750 -0.996870 0.183273
v 0.051000 0.445960 0.183273
v 0.051000 -0.430003 0.183273
v 0.051000 -0.179829 0.183273
v 0.101704 -0.399487 0.258110
v 0.101704 -0.210430 0.258110
v -0.122454 -0.399619 0.258110
v -0.122454 -0.210674 0.258110
v -0.122454 -0.399724 0.183273
v -0.122454 -0.210867 0.183273
v 0.101704 -0.399487 0.183273
v 0.101704 -0.210430 0.183273
vn -1.0000 0.0000 0.0000
vn 0.0000 0.0000 -1.0000
vn 1.0000 0.0000 0.0000
vn 0.0000 0.0000 1.0000
vn 0.0000 -1.0000 0.0000
vn -0.0018 1.0000 -0.0023
vn -0.0051 1.0000 -0.0023
vn -0.0160 0.9999 -0.0023
vn -0.5153 0.8570 -0.0026
vn 0.5156 -0.8568 0.0000
vn -0.5164 -0.8564 0.0014
vn 0.5167 0.8562 0.0000
usemtl Door
s off
f 28//1 25//1 4//1 11//1
f 11//2 4//2 8//2 13//2
f 22//3 20//3 6//3 15//3
f 15//4 6//4 2//4 10//4
f 17//5 19//5 5//5 1//5
f 20//6 18//6 2//6 6//6
f 5//4 16//4 9//4 1//4
f 16//4 15//4 10//4 9//4
f 19//3 21//3 16//3 5//3
f 21//3 22//3 15//3 16//3
f 3//2 12//2 14//2 7//2
f 12//2 11//2 13//2 14//2
f 29//1 27//1 12//1 3//1
f 27//1 28//1 11//1 12//1
f 9//1 10//1 24//1 23//1
f 1//1 9//1 23//1 17//1
f 26//3 31//3 21//3 19//3
f 30//7 25//7 18//7 20//7
f 29//5 26//5 19//5 17//5
f 32//3 30//3 20//3 22//3
f 10//1 2//1 18//1 24//1
f 13//3 8//3 30//3 32//3
f 3//5 7//5 26//5 29//5
f 8//8 4//8 25//8 30//8
f 7//3 14//3 31//3 26//3
f 14//3 13//3 32//3 31//3
f 17//1 23//1 27//1 29//1
f 24//1 18//1 25//1 28//1
usemtl Handle
f 24//9 28//9 38//9 36//9
f 22//4 21//4 33//4 34//4
f 39//3 40//3 34//3 33//3
f 35//1 36//1 38//1 37//1
f 23//4 24//4 36//4 35//4
f 31//2 32//2 40//2 39//2
f 21//10 31//10 39//10 33//10
f 28//2 27//2 37//2 38//2
f 27//11 23//11 35//11 37//11
f 32//12 22//12 34//12 40//12
o Wall_Plane
v -0.071749 -0.996870 -0.313703
v -0.071749 -0.996865 1.019630
v -0.071749 -0.996865 0.352963
v -0.071749 -0.996865 -0.980370
v -0.071749 1.003134 1.019630
v -0.071749 1.003134 0.352963
v -0.071749 1.003134 -0.980370
v -0.071749 1.003134 -0.313703
v -0.071750 0.445963 -0.313700
v -0.071749 0.445959 0.352963
v -0.071749 0.445959 1.019630
v -0.071749 0.445959 -0.980370
v 0.050996 0.445959 -0.980370
v 0.050996 0.445959 1.019630
v 0.050996 0.445959 0.352960
v 0.051000 0.445959 -0.313700
v 0.050996 1.003134 -0.313703
v 0.050996 1.003134 -0.980370
v 0.050996 1.003134 0.352963
v 0.050996 1.003134 1.019630
v 0.050996 -0.996865 -0.980370
v 0.050996 -0.996865 0.352963
v 0.050996 -0.996865 1.019630
v 0.050996 -0.996865 -0.313703
vn -1.0000 0.0000 -0.0000
vn 1.0000 0.0000 0.0000
vn 0.0000 1.0000 0.0000
vn -0.0000 -0.0000 -1.0000
vn 0.0000 -1.0000 -0.0000
vn 0.0000 0.0000 1.0000
usemtl Wall
s off
f 49//13 48//13 47//13 52//13
f 51//13 45//13 46//13 50//13
f 50//13 46//13 48//13 49//13
f 55//14 56//14 57//14 59//14
f 42//13 51//13 50//13 43//13
f 41//13 49//13 52//13 44//13
f 56//14 53//14 58//14 57//14
f 54//14 55//14 59//14 60//14
f 63//14 62//14 55//14 54//14
f 64//14 61//14 53//14 56//14
f 45//15 60//15 59//15 46//15
f 50//16 55//16 62//16 43//16
f 44//17 61//17 64//17 41//17
f 46//15 59//15 57//15 48//15
f 51//18 54//18 60//18 45//18
f 47//16 58//16 53//16 52//16
f 48//15 57//15 58//15 47//15
f 52//16 53//16 61//16 44//16
f 43//17 62//17 63//17 42//17
f 41//18 64//18 56//18 49//18
f 42//18 63//18 54//18 51//18
f 49//17 56//17 55//17 50//17
