# Blender v2.79 (sub 0) OBJ File: 'door.blend'
# www.blender.org
mtllib door.mtl
o Plane
v -0.010377 1.003133 1.019633
v -0.010377 -0.996867 1.019633
v -0.010377 1.003133 -0.980367
v -0.010377 -0.996867 -0.980367
v -0.010377 -0.996867 0.319633
v -0.010377 -0.996867 -0.280367
v -0.010377 0.203133 0.319633
v -0.010377 0.203133 -0.280367
v 0.089623 -0.996867 0.319633
v 0.089623 -0.996867 -0.280367
v 0.089623 0.203133 0.319633
v 0.089623 0.203133 -0.280367
v -0.010377 1.003133 1.019633
v -0.010377 -0.996867 1.019633
v -0.010377 1.003133 -0.980367
v -0.010377 -0.996867 -0.980367
v -0.010377 -0.996867 0.319633
v -0.010377 -0.996867 -0.280367
v -0.010377 0.203133 0.319633
v -0.010377 0.203133 -0.280367
v 0.089623 -0.996867 0.319633
v 0.089623 -0.996867 -0.280367
v 0.089623 0.203133 0.319633
v 0.089623 0.203133 -0.280367
vn -1.0000 -0.0000 0.0000
vn 1.0000 0.0000 0.0000
vn 0.0000 0.0000 1.0000
vn 0.0000 0.0000 -1.0000
vn 0.0000 -1.0000 0.0000
vn 0.0000 1.0000 0.0000
usemtl Wall
s off
f 1//1 3//1 4//1 6//1 8//1 7//1 5//1 2//1
f 13//2 14//2 17//2 19//2 20//2 18//2 16//2 15//2
usemtl Door
f 10//1 9//1 11//1 12//1
f 6//3 10//3 12//3 8//3
f 7//4 11//4 9//4 5//4
f 8//5 12//5 11//5 7//5
f 5//6 9//6 10//6 6//6
f 22//2 24//2 23//2 21//2
f 18//3 22//3 24//3 20//3
f 19//4 23//4 21//4 17//4
f 20//5 24//5 23//5 19//5
f 17//6 21//6 22//6 18//6
