# Blender v2.79 (sub 0) OBJ File: 'gate.blend'
# www.blender.org
mtllib gate.mtl
o Plane
v -0.010377 1.003133 1.019633
v -0.010377 -0.996867 1.019633
v -0.010377 1.003133 -0.980367
v -0.010377 -0.996867 -0.980367
v -0.010377 -0.996867 0.722737
v -0.010377 -0.996867 -0.683470
v -0.010377 0.582912 0.722737
v -0.010377 0.582912 -0.683470
v 0.089623 -0.996867 0.722737
v 0.089623 -0.996867 -0.683470
v 0.089623 0.582912 0.722737
v 0.089623 0.582912 -0.683470
vn -1.0000 0.0000 0.0000
vn 0.0000 0.0000 1.0000
vn 0.0000 0.0000 -1.0000
vn 0.0000 -1.0000 0.0000
vn 0.0000 1.0000 0.0000
usemtl Wall
s off
f 1//1 3//1 4//1 6//1 8//1 7//1 5//1 2//1
usemtl Door
f 10//1 9//1 11//1 12//1
f 6//2 10//2 12//2 8//2
f 7//3 11//3 9//3 5//3
f 8//4 12//4 11//4 7//4
f 5//5 9//5 10//5 6//5
