# Blender v2.79 (sub 0) OBJ File: 'weaponcase.blend'
# www.blender.org
mtllib weaponcase.mtl
o WeaponCase_Cube
v 1.000000 2.792960 -1.000000
v 1.000000 2.792960 1.000000
v -1.000000 2.792960 1.000000
v -1.000000 2.792960 -1.000000
v 1.000000 4.792960 -0.999999
v 0.999999 4.792960 1.000001
v -1.000000 4.792960 1.000000
v -1.000000 4.792960 -1.000000
v 0.000000 0.223446 -0.245828
v 0.000000 2.692959 -0.245828
v 0.173827 0.223446 -0.173827
v 0.173827 2.692959 -0.173827
v 0.245828 0.223446 0.000000
v 0.245828 2.692959 0.000000
v 0.173827 0.223446 0.173827
v 0.173827 2.692959 0.173827
v 0.000000 0.223446 0.245828
v 0.000000 2.692959 0.245828
v -0.173827 0.223446 0.173827
v -0.173827 2.692959 0.173827
v -0.245828 0.223446 0.000000
v -0.245828 2.692959 0.000000
v -0.173827 0.223446 -0.173827
v -0.173827 2.692959 -0.173827
v 0.000000 0.223446 -0.356178
v 0.251856 0.223446 -0.251856
v 0.356178 0.223446 0.000000
v 0.251856 0.223446 0.251856
v 0.000000 0.223446 0.356178
v -0.251856 0.223446 0.251856
v -0.356178 0.223446 0.000000
v -0.251856 0.223446 -0.251856
v 0.000000 0.000000 -0.356178
v 0.251856 0.000000 -0.251856
v 0.356178 0.000000 0.000000
v 0.251856 0.000000 0.251856
v 0.000000 0.000000 0.356178
v -0.251856 0.000000 0.251856
v -0.356178 0.000000 0.000000
v -0.251856 0.000000 -0.251856
v 0.000000 2.692959 -0.339288
v 0.239912 2.692959 -0.239912
v 0.339287 2.692959 0.000000
v 0.239912 2.692959 0.239912
v 0.000000 2.692959 0.339288
v -0.239912 2.692959 0.239912
v -0.339287 2.692959 0.000000
v -0.239912 2.692959 -0.239912
v 0.000000 2.792959 -0.339288
v 0.239912 2.792959 -0.239912
v 0.339287 2.792959 0.000000
v 0.239912 2.792959 0.239912
v 0.000000 2.792959 0.339288
v -0.239912 2.792959 0.239912
v -0.339287 2.792960 0.000000
v -0.239912 2.792959 -0.239912
vn 0.0000 -1.0000 -0.0000
vn 0.0000 1.0000 -0.0000
vn 1.0000 0.0000 0.0000
vn -0.0000 -0.0000 1.0000
vn -1.0000 -0.0000 -0.0000
vn 0.0000 0.0000 -1.0000
vn 0.3827 0.0000 -0.9239
vn 0.9239 0.0000 -0.3827
vn 0.9239 0.0000 0.3827
vn 0.3827 0.0000 0.9239
vn -0.3827 0.0000 0.9239
vn -0.9239 0.0000 0.3827
vn -0.9239 0.0000 -0.3827
vn -0.3827 0.0000 -0.9239
usemtl Case
s off
f 1//1 2//1 3//1 4//1
f 5//2 8//2 7//2 6//2
f 1//3 5//3 6//3 2//3
f 2//4 6//4 7//4 3//4
f 3//5 7//5 8//5 4//5
f 5//6 1//6 4//6 8//6
usemtl Podium
f 9//7 10//7 12//7 11//7
f 11//8 12//8 14//8 13//8
f 13//9 14//9 16//9 15//9
f 15//10 16//10 18//10 17//10
f 17//11 18//11 20//11 19//11
f 19//12 20//12 22//12 21//12
f 10//1 24//1 48//1 41//1
f 21//13 22//13 24//13 23//13
f 23//14 24//14 10//14 9//14
f 15//2 17//2 29//2 28//2
f 31//13 32//13 40//13 39//13
f 21//2 23//2 32//2 31//2
f 11//2 13//2 27//2 26//2
f 17//2 19//2 30//2 29//2
f 23//2 9//2 25//2 32//2
f 9//2 11//2 26//2 25//2
f 13//2 15//2 28//2 27//2
f 19//2 21//2 31//2 30//2
f 33//1 34//1 35//1 36//1 37//1 38//1 39//1 40//1
f 29//11 30//11 38//11 37//11
f 27//9 28//9 36//9 35//9
f 25//7 26//7 34//7 33//7
f 32//14 25//14 33//14 40//14
f 30//12 31//12 39//12 38//12
f 28//10 29//10 37//10 36//10
f 26//8 27//8 35//8 34//8
f 42//7 41//7 49//7 50//7
f 12//1 10//1 41//1 42//1
f 16//1 14//1 43//1 44//1
f 22//1 20//1 46//1 47//1
f 18//1 16//1 44//1 45//1
f 24//1 22//1 47//1 48//1
f 14//1 12//1 42//1 43//1
f 20//1 18//1 45//1 46//1
f 50//2 49//2 56//2 55//2 54//2 53//2 52//2 51//2
f 41//14 48//14 56//14 49//14
f 47//12 46//12 54//12 55//12
f 45//10 44//10 52//10 53//10
f 43//8 42//8 50//8 51//8
f 48//13 47//13 55//13 56//13
f 46//11 45//11 53//11 54//11
f 44//9 43//9 51//9 52//9
