# Blender v2.79 (sub 0) OBJ File: 'well.blend'
# www.blender.org
mtllib well.mtl
o Well_Cylinder
v 0.000000 0.000000 -2.000000
v 0.000000 2.000000 -2.000000
v 0.765367 0.000000 -1.847759
v 0.765367 2.000000 -1.847759
v 1.414214 0.000000 -1.414214
v 1.414214 2.000000 -1.414214
v 1.847759 0.000000 -0.765367
v 1.847759 2.000000 -0.765367
v 2.000000 0.000000 0.000000
v 2.000000 2.000000 0.000000
v 1.847759 0.000000 0.765367
v 1.847759 2.000000 0.765367
v 1.414214 0.000000 1.414214
v 1.414214 2.000000 1.414214
v 0.765367 0.000000 1.847759
v 0.765367 2.000000 1.847759
v 0.000000 0.000000 2.000000
v 0.000000 2.000000 2.000000
v -0.765366 0.000000 1.847759
v -0.765366 2.000000 1.847759
v -1.414213 0.000000 1.414214
v -1.414213 2.000000 1.414214
v -1.847759 0.000000 0.765367
v -1.847759 2.000000 0.765367
v -2.000000 0.000000 -0.000000
v -2.000000 2.000000 -0.000000
v -1.847759 0.000000 -0.765367
v -1.847759 2.000000 -0.765367
v -1.414213 0.000000 -1.414214
v -1.414213 2.000000 -1.414214
v -0.765366 0.000000 -1.847759
v -0.765366 2.000000 -1.847759
v 0.000000 2.000000 -1.400000
v 0.535757 2.000000 -1.293431
v 0.989949 2.000000 -0.989949
v 1.293431 2.000000 -0.535757
v 1.400000 2.000000 0.000000
v 1.293431 2.000000 0.535757
v 0.989949 2.000000 0.989949
v 0.535757 2.000000 1.293431
v 0.000000 2.000000 1.400000
v -0.535756 2.000000 1.293431
v -0.989949 2.000000 0.989950
v -1.293431 2.000000 0.535757
v -1.400000 2.000000 -0.000000
v -1.293431 2.000000 -0.535757
v -0.989949 2.000000 -0.989950
v -0.535756 2.000000 -1.293432
v 0.000000 1.000000 -1.400000
v 0.535757 1.000000 -1.293431
v 0.989949 1.000000 -0.989949
v 1.293431 1.000000 -0.535757
v 1.400000 1.000000 0.000000
v 1.293431 1.000000 0.535757
v 0.989949 1.000000 0.989949
v 0.535757 1.000000 1.293431
v 0.000000 1.000000 1.400000
v -0.535756 1.000000 1.293431
v -0.989949 1.000000 0.989950
v -1.293431 1.000000 0.535757
v -1.400000 1.000000 -0.000000
v -1.293431 1.000000 -0.535757
v -0.989949 1.000000 -0.989950
v -0.535756 1.000000 -1.293432
v -1.677749 2.000190 -0.099446
v -1.677749 4.469033 -0.099446
v -1.607430 2.000190 -0.070319
v -1.607430 4.469033 -0.070319
v -1.578303 2.000190 -0.000000
v 2.022309 4.469033 -0.000000
v -1.607430 2.000190 0.070318
v -1.607430 4.469033 0.070318
v -1.677749 2.000190 0.099446
v -1.677749 4.469033 0.099446
v -1.748068 2.000190 0.070318
v -1.748068 4.469033 0.070318
v -1.777195 2.000190 -0.000000
v -1.777195 4.469033 -0.000000
v -1.748068 2.000190 -0.070319
v -1.748068 4.469033 -0.070319
v 1.677750 2.000190 -0.099446
v 1.677750 4.469033 -0.099446
v 1.748069 2.000190 -0.070319
v 1.748069 4.469033 -0.070319
v 1.777196 2.000190 -0.000000
v 1.777196 4.469033 -0.000000
v 1.748069 2.000190 0.070318
v 1.748069 4.469033 0.070318
v 1.677750 2.000190 0.099446
v 1.677750 4.469033 0.099446
v 1.607431 2.000190 0.070318
v 1.607431 4.469033 0.070318
v 1.578304 2.000190 -0.000000
v -2.022308 4.469033 -0.000000
v 1.607431 2.000190 -0.070319
v 1.607431 4.469033 -0.070319
v -2.022308 3.618834 1.000000
v 2.022309 3.618834 1.000000
v -2.022308 3.618834 -1.000000
v 2.022309 3.618834 -1.000000
v -2.022308 4.569033 -0.000000
v 2.022309 4.569033 -0.000000
v -2.022308 3.718834 1.000000
v 2.022309 3.718834 1.000000
v -2.022308 3.718834 -1.000000
v 2.022309 3.718834 -1.000000
vn 0.1951 0.0000 -0.9808
vn 0.5556 0.0000 -0.8315
vn 0.8315 0.0000 -0.5556
vn 0.9808 0.0000 -0.1951
vn 0.9808 0.0000 0.1951
vn 0.8315 0.0000 0.5556
vn 0.5556 0.0000 0.8315
vn 0.1951 0.0000 0.9808
vn -0.1951 0.0000 0.9808
vn -0.5556 0.0000 0.8315
vn -0.8315 0.0000 0.5556
vn -0.9808 0.0000 0.1951
vn -0.9808 0.0000 -0.1951
vn -0.8315 0.0000 -0.5556
vn 0.0000 1.0000 0.0000
vn -0.5556 0.0000 -0.8315
vn -0.1951 0.0000 -0.9808
vn 0.0000 -1.0000 0.0000
vn 0.3827 0.0000 -0.9239
vn 0.3827 0.0000 0.9239
vn -0.3827 0.0000 0.9239
vn -0.9239 0.0000 0.3827
vn -0.9239 0.0000 -0.3827
vn -0.3827 0.0000 -0.9239
vn 0.9239 0.0000 -0.3827
vn 0.9239 0.0000 0.3827
vn 0.0000 0.7619 0.6477
vn 0.0000 0.7619 -0.6477
vn 0.0000 0.0000 1.0000
vn 0.0000 0.0000 -1.0000
vn -1.0000 0.0000 0.0000
vn 1.0000 0.0000 0.0000
vn 0.0000 -0.7619 0.6477
vn 0.0000 -0.7619 -0.6477
vn 0.9237 0.0218 0.3826
vn -0.9999 0.0118 0.0000
usemtl Stone
s off
f 1//1 2//1 4//1 3//1
f 3//2 4//2 6//2 5//2
f 5//3 6//3 8//3 7//3
f 7//4 8//4 10//4 9//4
f 9//5 10//5 12//5 11//5
f 11//6 12//6 14//6 13//6
f 13//7 14//7 16//7 15//7
f 15//8 16//8 18//8 17//8
f 17//9 18//9 20//9 19//9
f 19//10 20//10 22//10 21//10
f 21//11 22//11 24//11 23//11
f 23//12 24//12 26//12 25//12
f 25//13 26//13 28//13 27//13
f 27//14 28//14 30//14 29//14
f 6//15 4//15 34//15 35//15
f 29//16 30//16 32//16 31//16
f 31//17 32//17 2//17 1//17
f 1//18 3//18 5//18 7//18 9//18 11//18 13//18 15//18 17//18 19//18 21//18 23//18 25//18 27//18 29//18 31//18
f 35//10 34//10 50//10 51//10
f 16//15 14//15 39//15 40//15
f 26//15 24//15 44//15 45//15
f 12//15 10//15 37//15 38//15
f 22//15 20//15 42//15 43//15
f 32//15 30//15 47//15 48//15
f 8//15 6//15 35//15 36//15
f 18//15 16//15 40//15 41//15
f 4//15 2//15 33//15 34//15
f 28//15 26//15 45//15 46//15
f 14//15 12//15 38//15 39//15
f 24//15 22//15 43//15 44//15
f 2//15 32//15 48//15 33//15
f 10//15 8//15 36//15 37//15
f 20//15 18//15 41//15 42//15
f 30//15 28//15 46//15 47//15
f 50//15 49//15 64//15 63//15 62//15 61//15 60//15 59//15 58//15 57//15 56//15 55//15 54//15 53//15 52//15 51//15
f 43//2 42//2 58//2 59//2
f 36//11 35//11 51//11 52//11
f 44//3 43//3 59//3 60//3
f 37//12 36//12 52//12 53//12
f 45//4 44//4 60//4 61//4
f 38//13 37//13 53//13 54//13
f 46//5 45//5 61//5 62//5
f 39//14 38//14 54//14 55//14
f 47//6 46//6 62//6 63//6
f 40//16 39//16 55//16 56//16
f 48//7 47//7 63//7 64//7
f 41//17 40//17 56//17 57//17
f 34//9 33//9 49//9 50//9
f 33//8 48//8 64//8 49//8
f 42//1 41//1 57//1 58//1
usemtl Wood
f 65//19 66//19 68//19 67//19
f 71//20 72//20 74//20 73//20
f 73//21 74//21 76//21 75//21
f 75//22 76//22 78//22 77//22
f 77//23 78//23 80//23 79//23
f 79//24 80//24 66//24 65//24
f 65//18 67//18 69//18 71//18 73//18 75//18 77//18 79//18
f 81//19 82//19 84//19 83//19
f 83//25 84//25 86//25 85//25
f 85//26 86//26 88//26 87//26
f 87//20 88//20 90//20 89//20
f 89//21 90//21 92//21 91//21
f 95//24 96//24 82//24 81//24
f 81//18 83//18 85//18 87//18 89//18 91//18 93//18 95//18
f 101//27 103//27 104//27 102//27
f 102//28 106//28 105//28 101//28
f 98//29 104//29 103//29 97//29
f 101//30 102//30 70//30 94//30
f 99//30 105//30 106//30 100//30
f 101//31 105//31 99//31 94//31
f 97//31 103//31 101//31 94//31
f 70//32 102//32 104//32 98//32
f 102//32 70//32 100//32 106//32
f 100//33 70//33 94//33 99//33
f 94//34 70//34 98//34 97//34
f 72//32 71//32 68//32
f 71//35 69//35 68//35
f 68//25 69//25 67//25
f 91//22 92//22 93//22
f 93//36 92//36 96//36
f 95//23 93//23 96//23
